<svg width="183" height="36" viewBox="0 0 183 36" fill="none" xmlns="http://www.w3.org/2000/svg">
<path d="M10.5 6V30V6ZM25.5 6V30V6ZM4.5 12H10.5H4.5ZM25.5 12H31.5H25.5ZM4.5 18H31.5H4.5ZM4.5 24H10.5H4.5ZM25.5 24H31.5H25.5ZM6 30H30C30.3978 30 30.7794 29.842 31.0607 29.5607C31.342 29.2794 31.5 28.8978 31.5 28.5V7.5C31.5 7.10218 31.342 6.72064 31.0607 6.43934C30.7794 6.15804 30.3978 6 30 6H6C5.60218 6 5.22064 6.15804 4.93934 6.43934C4.65804 6.72064 4.5 7.10218 4.5 7.5V28.5C4.5 28.8978 4.65804 29.2794 4.93934 29.5607C5.22064 29.842 5.60218 30 6 30Z" stroke="white" stroke-opacity="0.75" stroke-width="2" stroke-linecap="round" stroke-linejoin="round"/>
<path d="M39.7216 9.54545V27H42.7557V14.983H42.9176L47.7415 26.9489H50.0085L54.8324 15.0085H54.9943V27H58.0284V9.54545H54.1591L48.9773 22.1932H48.7727L43.5909 9.54545H39.7216ZM65.8455 27.2557C69.6807 27.2557 72.1182 24.554 72.1182 20.5057C72.1182 16.4489 69.6807 13.7386 65.8455 13.7386C62.0102 13.7386 59.5727 16.4489 59.5727 20.5057C59.5727 24.554 62.0102 27.2557 65.8455 27.2557ZM65.8625 24.7841C63.7403 24.7841 62.7006 22.892 62.7006 20.4972C62.7006 18.1023 63.7403 16.1847 65.8625 16.1847C67.9506 16.1847 68.9903 18.1023 68.9903 20.4972C68.9903 22.892 67.9506 24.7841 65.8625 24.7841ZM84.7847 13.9091H81.5034L78.4864 23.6335H78.35L75.3415 13.9091H72.0517L76.7136 27H80.1227L84.7847 13.9091ZM85.7196 27H88.8048V13.9091H85.7196V27ZM87.2707 12.0511C88.2509 12.0511 89.052 11.3011 89.052 10.3807C89.052 9.4517 88.2509 8.7017 87.2707 8.7017C86.2821 8.7017 85.481 9.4517 85.481 10.3807C85.481 11.3011 86.2821 12.0511 87.2707 12.0511ZM96.5729 27.2557C99.624 27.2557 101.721 25.7642 102.266 23.4886L99.3854 23.1648C98.9678 24.2727 97.945 24.8523 96.6155 24.8523C94.6212 24.8523 93.3001 23.5398 93.2746 21.2983H102.394V20.3523C102.394 15.7585 99.6325 13.7386 96.4109 13.7386C92.6609 13.7386 90.2149 16.4915 90.2149 20.5312C90.2149 24.6392 92.6268 27.2557 96.5729 27.2557ZM93.2831 19.2188C93.3768 17.5483 94.6126 16.142 96.4536 16.142C98.2263 16.142 99.4195 17.4375 99.4365 19.2188H93.2831ZM118.179 14.3438H121.222C121.162 11.3949 118.648 9.30682 114.932 9.30682C111.267 9.30682 108.514 11.3693 108.523 14.4545C108.523 16.9602 110.304 18.4006 113.176 19.142L115.162 19.6534C117.046 20.1307 118.29 20.7188 118.299 22.0739C118.29 23.5653 116.875 24.5625 114.813 24.5625C112.836 24.5625 111.301 23.6761 111.174 21.8438H108.063C108.191 25.3125 110.773 27.2642 114.838 27.2642C119.023 27.2642 121.452 25.1761 121.461 22.0994C121.452 19.0739 118.955 17.6932 116.33 17.071L114.693 16.6619C113.262 16.321 111.711 15.7159 111.728 14.2585C111.736 12.946 112.912 11.983 114.889 11.983C116.773 11.983 118.017 12.8608 118.179 14.3438ZM128.738 27.2557C131.79 27.2557 133.886 25.7642 134.432 23.4886L131.551 23.1648C131.133 24.2727 130.111 24.8523 128.781 24.8523C126.787 24.8523 125.466 23.5398 125.44 21.2983H134.56V20.3523C134.56 15.7585 131.798 13.7386 128.577 13.7386C124.827 13.7386 122.381 16.4915 122.381 20.5312C122.381 24.6392 124.792 27.2557 128.738 27.2557ZM125.449 19.2188C125.542 17.5483 126.778 16.142 128.619 16.142C130.392 16.142 131.585 17.4375 131.602 19.2188H125.449ZM139.737 27.2642C141.791 27.2642 143.018 26.3011 143.58 25.2017H143.683V27H146.649V18.2386C146.649 14.7784 143.828 13.7386 141.33 13.7386C138.578 13.7386 136.464 14.9659 135.782 17.3523L138.663 17.7614C138.97 16.8665 139.839 16.0994 141.347 16.0994C142.779 16.0994 143.563 16.8324 143.563 18.1193V18.1705C143.563 19.0568 142.634 19.0994 140.325 19.3466C137.785 19.6193 135.356 20.3778 135.356 23.3267C135.356 25.9006 137.239 27.2642 139.737 27.2642ZM140.538 24.9972C139.251 24.9972 138.33 24.4091 138.33 23.2756C138.33 22.0909 139.362 21.5966 140.742 21.4006C141.552 21.2898 143.171 21.0852 143.572 20.7614V22.304C143.572 23.7614 142.396 24.9972 140.538 24.9972ZM148.551 27H151.636V19.304C151.636 17.642 152.889 16.4659 154.585 16.4659C155.105 16.4659 155.753 16.5597 156.017 16.6449V13.8068C155.736 13.7557 155.25 13.7216 154.909 13.7216C153.409 13.7216 152.156 14.5739 151.679 16.0909H151.542V13.9091H148.551V27ZM162.038 27.2557C165.327 27.2557 167.424 25.304 167.646 22.5256H164.697C164.433 23.9318 163.418 24.7415 162.063 24.7415C160.137 24.7415 158.893 23.1307 158.893 20.4545C158.893 17.8125 160.163 16.2273 162.063 16.2273C163.546 16.2273 164.458 17.1818 164.697 18.4432H167.646C167.433 15.6051 165.217 13.7386 162.021 13.7386C158.185 13.7386 155.765 16.5085 155.765 20.5057C155.765 24.4688 158.126 27.2557 162.038 27.2557ZM172.064 19.3295C172.064 17.4375 173.24 16.3466 174.894 16.3466C176.513 16.3466 177.468 17.3778 177.468 19.142V27H180.553V18.6648C180.553 15.5028 178.763 13.7386 176.044 13.7386C174.033 13.7386 172.755 14.6506 172.149 16.1335H171.996V9.54545H168.979V27H172.064V19.3295Z" fill="white"/>
</svg>
