<svg width="203" height="62" viewBox="0 0 203 62" fill="none" xmlns="http://www.w3.org/2000/svg">
<path d="M20.5 19V43V19ZM35.5 19V43V19ZM14.5 25H20.5H14.5ZM35.5 25H41.5H35.5ZM14.5 31H41.5H14.5ZM14.5 37H20.5H14.5ZM35.5 37H41.5H35.5ZM16 43H40C40.3978 43 40.7794 42.842 41.0607 42.5607C41.342 42.2794 41.5 41.8978 41.5 41.5V20.5C41.5 20.1022 41.342 19.7206 41.0607 19.4393C40.7794 19.158 40.3978 19 40 19H16C15.6022 19 15.2206 19.158 14.9393 19.4393C14.658 19.7206 14.5 20.1022 14.5 20.5V41.5C14.5 41.8978 14.658 42.2794 14.9393 42.5607C15.2206 42.842 15.6022 43 16 43Z" stroke="white" stroke-opacity="0.75" stroke-width="2" stroke-linecap="round" stroke-linejoin="round"/>
<path d="M49.7216 22.5455V40H52.7557V27.983H52.9176L57.7415 39.9489H60.0085L64.8324 28.0085H64.9943V40H68.0284V22.5455H64.1591L58.9773 35.1932H58.7727L53.5909 22.5455H49.7216ZM75.8455 40.2557C79.6807 40.2557 82.1182 37.554 82.1182 33.5057C82.1182 29.4489 79.6807 26.7386 75.8455 26.7386C72.0102 26.7386 69.5727 29.4489 69.5727 33.5057C69.5727 37.554 72.0102 40.2557 75.8455 40.2557ZM75.8625 37.7841C73.7403 37.7841 72.7006 35.892 72.7006 33.4972C72.7006 31.1023 73.7403 29.1847 75.8625 29.1847C77.9506 29.1847 78.9903 31.1023 78.9903 33.4972C78.9903 35.892 77.9506 37.7841 75.8625 37.7841ZM94.7847 26.9091H91.5034L88.4864 36.6335H88.35L85.3415 26.9091H82.0517L86.7136 40H90.1227L94.7847 26.9091ZM95.7196 40H98.8048V26.9091H95.7196V40ZM97.2707 25.0511C98.2509 25.0511 99.052 24.3011 99.052 23.3807C99.052 22.4517 98.2509 21.7017 97.2707 21.7017C96.2821 21.7017 95.481 22.4517 95.481 23.3807C95.481 24.3011 96.2821 25.0511 97.2707 25.0511ZM106.573 40.2557C109.624 40.2557 111.721 38.7642 112.266 36.4886L109.385 36.1648C108.968 37.2727 107.945 37.8523 106.615 37.8523C104.621 37.8523 103.3 36.5398 103.275 34.2983H112.394V33.3523C112.394 28.7585 109.633 26.7386 106.411 26.7386C102.661 26.7386 100.215 29.4915 100.215 33.5312C100.215 37.6392 102.627 40.2557 106.573 40.2557ZM103.283 32.2188C103.377 30.5483 104.613 29.142 106.454 29.142C108.226 29.142 109.419 30.4375 109.437 32.2188H103.283ZM128.179 27.3438H131.222C131.162 24.3949 128.648 22.3068 124.932 22.3068C121.267 22.3068 118.514 24.3693 118.523 27.4545C118.523 29.9602 120.304 31.4006 123.176 32.142L125.162 32.6534C127.046 33.1307 128.29 33.7188 128.299 35.0739C128.29 36.5653 126.875 37.5625 124.813 37.5625C122.836 37.5625 121.301 36.6761 121.174 34.8438H118.063C118.191 38.3125 120.773 40.2642 124.838 40.2642C129.023 40.2642 131.452 38.1761 131.461 35.0994C131.452 32.0739 128.955 30.6932 126.33 30.071L124.693 29.6619C123.262 29.321 121.711 28.7159 121.728 27.2585C121.736 25.946 122.912 24.983 124.889 24.983C126.773 24.983 128.017 25.8608 128.179 27.3438ZM138.738 40.2557C141.79 40.2557 143.886 38.7642 144.432 36.4886L141.551 36.1648C141.133 37.2727 140.111 37.8523 138.781 37.8523C136.787 37.8523 135.466 36.5398 135.44 34.2983H144.56V33.3523C144.56 28.7585 141.798 26.7386 138.577 26.7386C134.827 26.7386 132.381 29.4915 132.381 33.5312C132.381 37.6392 134.792 40.2557 138.738 40.2557ZM135.449 32.2188C135.542 30.5483 136.778 29.142 138.619 29.142C140.392 29.142 141.585 30.4375 141.602 32.2188H135.449ZM149.737 40.2642C151.791 40.2642 153.018 39.3011 153.58 38.2017H153.683V40H156.649V31.2386C156.649 27.7784 153.828 26.7386 151.33 26.7386C148.578 26.7386 146.464 27.9659 145.782 30.3523L148.663 30.7614C148.97 29.8665 149.839 29.0994 151.347 29.0994C152.779 29.0994 153.563 29.8324 153.563 31.1193V31.1705C153.563 32.0568 152.634 32.0994 150.325 32.3466C147.785 32.6193 145.356 33.3778 145.356 36.3267C145.356 38.9006 147.239 40.2642 149.737 40.2642ZM150.538 37.9972C149.251 37.9972 148.33 37.4091 148.33 36.2756C148.33 35.0909 149.362 34.5966 150.742 34.4006C151.552 34.2898 153.171 34.0852 153.572 33.7614V35.304C153.572 36.7614 152.396 37.9972 150.538 37.9972ZM158.551 40H161.636V32.304C161.636 30.642 162.889 29.4659 164.585 29.4659C165.105 29.4659 165.753 29.5597 166.017 29.6449V26.8068C165.736 26.7557 165.25 26.7216 164.909 26.7216C163.409 26.7216 162.156 27.5739 161.679 29.0909H161.542V26.9091H158.551V40ZM172.038 40.2557C175.327 40.2557 177.424 38.304 177.646 35.5256H174.697C174.433 36.9318 173.418 37.7415 172.063 37.7415C170.137 37.7415 168.893 36.1307 168.893 33.4545C168.893 30.8125 170.163 29.2273 172.063 29.2273C173.546 29.2273 174.458 30.1818 174.697 31.4432H177.646C177.433 28.6051 175.217 26.7386 172.021 26.7386C168.185 26.7386 165.765 29.5085 165.765 33.5057C165.765 37.4688 168.126 40.2557 172.038 40.2557ZM182.064 32.3295C182.064 30.4375 183.24 29.3466 184.894 29.3466C186.513 29.3466 187.468 30.3778 187.468 32.142V40H190.553V31.6648C190.553 28.5028 188.763 26.7386 186.044 26.7386C184.033 26.7386 182.755 27.6506 182.149 29.1335H181.996V22.5455H178.979V40H182.064V32.3295Z" fill="white"/>
</svg>
